HIERARCHY
ROOT Hips
{
    OFFSET 0.000000 0.000000 0.000000
    CHANNELS 6 Xposition Yposition Zposition Zrotation Xrotation Yrotation
    JOINT Spine
    {
        OFFSET -0.000000 0.084000 0.000000
        CHANNELS 3 Zrotation Xrotation Yrotation
        JOINT Spine1
        {
            OFFSET -0.000000 0.216247 0.000000
            CHANNELS 3 Zrotation Xrotation Yrotation
            JOINT Neck
            {
                OFFSET -0.000000 0.215359 0.019578
                CHANNELS 3 Zrotation Xrotation Yrotation
                JOINT Head
                {
                    OFFSET -0.000000 0.143414 -0.020488
                    CHANNELS 3 Zrotation Xrotation Yrotation
                    End Site
                    {
                        OFFSET -0.000000 0.204877 0.000000
                    }
                }
            }
            JOINT LeftShoulder
            {
                OFFSET 0.040109 0.191272 -0.003631
                CHANNELS 3 Zrotation Xrotation Yrotation
                JOINT LeftArm
                {
                    OFFSET 0.138349 0.000000 0.000000
                    CHANNELS 3 Zrotation Xrotation Yrotation
                    JOINT LeftForeArm
                    {
                        OFFSET 0.335349 0.000000 0.000000
                        CHANNELS 3 Zrotation Xrotation Yrotation
                        JOINT LeftHand
                        {
                            OFFSET 0.276368 0.000000 0.000000
                            CHANNELS 3 Zrotation Xrotation Yrotation
                            End Site
                            {
                                OFFSET 0.153658 0.000000 0.000000
                            }
                        }
                    }
                }
            }
            JOINT RightShoulder
            {
                OFFSET -0.041533 0.191272 -0.003631
                CHANNELS 3 Zrotation Xrotation Yrotation
                JOINT RightArm
                {
                    OFFSET -0.138349 0.000000 0.000000
                    CHANNELS 3 Zrotation Xrotation Yrotation
                    JOINT RightForeArm
                    {
                        OFFSET -0.335349 0.000000 0.000000
                        CHANNELS 3 Zrotation Xrotation Yrotation
                        JOINT RightHand
                        {
                            OFFSET -0.276368 0.000000 0.000000
                            CHANNELS 3 Zrotation Xrotation Yrotation
                            End Site
                            {
                                OFFSET -0.153658 0.000000 0.000000
                            }
                        }
                    }
                }
            }
        }
    }
    JOINT LeftUpLeg
    {
        OFFSET 0.102438 0.000000 0.000000
        CHANNELS 3 Zrotation Xrotation Yrotation
        JOINT LeftLeg
        {
            OFFSET -0.000000 -0.442852 0.000000
            CHANNELS 3 Zrotation Xrotation Yrotation
            JOINT LeftFoot
            {
                OFFSET -0.000000 -0.461647 0.000000
                CHANNELS 3 Zrotation Xrotation Yrotation
                JOINT LeftToeBase
                {
                    OFFSET -0.000000 -0.066585 0.153658
                    CHANNELS 3 Zrotation Xrotation Yrotation
                    End Site
                    {
                        OFFSET -0.000000 0.000000 0.040975
                    }
                }
            }
        }
    }
    JOINT RightUpLeg
    {
        OFFSET -0.102438 0.000000 0.000000
        CHANNELS 3 Zrotation Xrotation Yrotation
        JOINT RightLeg
        {
            OFFSET -0.000000 -0.442852 0.000000
            CHANNELS 3 Zrotation Xrotation Yrotation
            JOINT RightFoot
            {
                OFFSET -0.000000 -0.461647 0.000000
                CHANNELS 3 Zrotation Xrotation Yrotation
                JOINT RightToeBase
                {
                    OFFSET -0.000000 -0.066585 0.153658
                    CHANNELS 3 Zrotation Xrotation Yrotation
                    End Site
                    {
                        OFFSET -0.000000 0.000000 0.040975
                    }
                }
            }
        }
    }
}
MOTION
Frames:    5
Frame Time:    0.010000
-0.537468    0.420293    0.218709    -3.096572    -13.659060    -5.450713    -0.726920    6.300819    -0.778208    2.916694    8.161049    -0.481508    -4.019664    15.369940    1.065675    -2.016947    -6.584692    0.741750    1.300546    2.643585    -1.638785    -32.652313    27.625559    -51.479057    5.366962    -43.175739    -90.412888    43.422173    -30.924889    24.658621    -0.733669    -0.995290    16.835436    46.096603    20.949345    38.063660    -6.655475    -40.103397    90.068527    18.112522    -37.665195    -21.966452    71.702492    -77.912376    60.513767    -46.355362    70.985748    36.666191    -9.026623    16.119183    3.546687    0.000000    0.000000    0.000000    41.758232    -85.032997    39.138844    4.466121    77.211960    -16.880381    -8.432756    19.066904    5.657741    0.000000    0.000000    0.000000    
-0.537471    0.420289    0.218700    -3.090218    -13.664090    -5.440559    -0.734355    6.319541    -0.784147    2.908289    8.152962    -0.482824    -4.024630    15.399030    1.070463    -1.993292    -6.633706    0.749589    1.303544    2.558965    -1.695501    -32.629173    27.239868    -51.425301    5.630879    -43.290546    -90.369125    42.644951    -31.075319    24.457397    -0.736573    -0.991487    16.860567    45.951122    20.801117    37.895088    -7.033334    -39.797535    90.375168    19.370941    -37.088161    -21.067448    71.662827    -77.913467    60.482697    -46.348705    70.980858    36.654671    -9.031000    16.121822    3.547090    0.000000    0.000000    0.000000    41.728481    -85.029648    39.155006    4.597958    77.209740    -17.031517    -8.428636    19.063902    5.662278    0.000000    0.000000    0.000000    
-0.537476    0.420283    0.218692    -3.084329    -13.668058    -5.430734    -0.739449    6.337839    -0.790953    2.894362    8.144863    -0.483876    -4.024456    15.428494    1.077352    -1.973732    -6.685565    0.758676    1.312753    2.460719    -1.757054    -32.586838    26.841120    -51.384666    5.890030    -43.407764    -90.351532    41.844032    -31.248880    24.206505    -0.742760    -0.987432    16.888987    45.754108    20.792452    37.759445    -7.389395    -39.640713    90.727127    20.387768    -36.621220    -20.167381    71.631866    -77.914482    60.460396    -46.342793    70.977074    36.642635    -9.037469    16.123308    3.548235    0.000000    0.000000    0.000000    41.719822    -85.027237    39.180958    4.681445    77.209152    -17.133303    -8.423599    19.062691    5.666189    0.000000    0.000000    0.000000    
-0.537484    0.420273    0.218688    -3.078736    -13.671287    -5.420995    -0.744410    6.355246    -0.798226    2.878073    8.138422    -0.485314    -4.020731    15.457262    1.086010    -1.956690    -6.739790    0.769022    1.328258    2.348702    -1.823351    -32.527809    26.435404    -51.354050    6.135130    -43.525345    -90.389847    41.076237    -31.432629    23.912636    -0.751641    -0.979306    16.918993    45.493301    20.970436    37.675682    -7.714376    -39.705631    91.126938    21.102926    -36.357784    -19.352280    71.607681    -77.915688    60.445011    -46.337872    70.974312    36.630981    -9.045501    16.124100    3.550054    0.000000    0.000000    0.000000    41.727348    -85.026291    39.215595    4.734982    77.210342    -17.204409    -8.418328    19.063175    5.669163    0.000000    0.000000    0.000000    
-0.537496    0.420264    0.218686    -3.074406    -13.672197    -5.411665    -0.749734    6.371797    -0.806269    2.861759    8.130865    -0.486609    -4.015984    15.485441    1.095962    -1.939320    -6.793984    0.780873    1.348086    2.222228    -1.895681    -32.459320    26.023397    -51.326988    6.347692    -43.629810    -90.504738    40.489914    -31.578991    23.619879    -0.759663    -0.962167    16.950838    45.178185    21.280106    37.629276    -7.876322    -39.913776    91.658905    21.411215    -36.321404    -18.692757    71.596390    -77.917473    60.442352    -46.331104    70.972649    36.617607    -9.053326    16.125792    3.552688    0.000000    0.000000    0.000000    41.755077    -85.027039    39.265755    4.777990    77.211899    -17.262901    -8.413755    19.065821    5.670215    0.000000    0.000000    0.000000    
